<?xml version="1.0" encoding="UTF-8" standalone="no"?>
<svg
   height="24"
   width="24"
   version="1.1"
   id="svg12"
   sodipodi:docname="mzts-customqry_adv_filters_set.svg"
   inkscape:version="1.3.2 (091e20e, 2023-11-25, custom)"
   xmlns:inkscape="http://www.inkscape.org/namespaces/inkscape"
   xmlns:sodipodi="http://sodipodi.sourceforge.net/DTD/sodipodi-0.dtd"
   xmlns="http://www.w3.org/2000/svg"
   xmlns:svg="http://www.w3.org/2000/svg">
  <defs
     id="defs12" />
  <sodipodi:namedview
     id="namedview12"
     pagecolor="#ffffff"
     bordercolor="#000000"
     borderopacity="0.25"
     inkscape:showpageshadow="2"
     inkscape:pageopacity="0.0"
     inkscape:pagecheckerboard="0"
     inkscape:deskcolor="#d1d1d1"
     inkscape:zoom="34.625"
     inkscape:cx="12"
     inkscape:cy="12"
     inkscape:window-width="1920"
     inkscape:window-height="1027"
     inkscape:window-x="-8"
     inkscape:window-y="-8"
     inkscape:window-maximized="1"
     inkscape:current-layer="svg12" />
  <g
     transform="translate(0 -1028.4)"
     id="g12">
    <path
       d="m2 1032.4c-1.1046 0-2 0.9-2 2v7 1 7c0 1.1 0.89543 2 2 2h2 16 2c1.105 0 2-0.9 2-2v-7-1-7c0-1.1-0.895-2-2-2h-2-16-2z"
       fill="#2980b9"
       id="path1" />
    <path
       d="m2 1029.4c-1.1046 0-2 0.9-2 2v7 1 7c0 1.1 0.89543 2 2 2h2 16 2c1.105 0 2-0.9 2-2v-7-1-7c0-1.1-0.895-2-2-2h-2-16-2z"
       fill="#3498db"
       id="path2" />
    <path
       d="m5 1031.4c-0.5523 0-1 0.4-1 1v4 5 2 2c0 0.5 0.4477 1 1 1s1-0.5 1-1v-2-7-2-2c0-0.6-0.4477-1-1-1zm7 0c-0.552 0-1 0.4-1 1v2 2 7 2c0 0.5 0.448 1 1 1s1-0.5 1-1v-2-7-2-2c0-0.6-0.448-1-1-1zm7 0c-0.552 0-1 0.4-1 1v2 2 7 2c0 0.5 0.448 1 1 1s1-0.5 1-1v-2-7-2-2c0-0.6-0.448-1-1-1z"
       fill="#34495e"
       id="path3" />
    <g
       fill="#2c3e50"
       id="g6">
      <path
         d="m5 1031.4v15c0.5523 0 1-0.5 1-1v-2-7-2-2c0-0.6-0.4477-1-1-1z"
         id="path4" />
      <path
         d="m12 1031.4v15c0.552 0 1-0.5 1-1v-2-7-2-2c0-0.6-0.448-1-1-1z"
         id="path5" />
      <path
         d="m19 1031.4v15c0.552 0 1-0.5 1-1v-2-7-2-2c0-0.6-0.448-1-1-1z"
         id="path6" />
    </g>
    <path
       d="m3 1037.4c-0.5523 0-1 0.4-1 1 0 0.5 0.4477 1 1 1h4c0.5523 0 1-0.5 1-1 0-0.6-0.4477-1-1-1h-4z"
       fill="#ecf0f1"
       id="path7" />
    <path
       d="m2 1038.4c0 0.5 0.4477 1 1 1h4c0.5523 0 1-0.5 1-1h-6z"
       fill="#95a5a6"
       id="path8" />
    <path
       d="m10 1041.4c-0.5523 0-1 0.4-1 1 0 0.5 0.4477 1 1 1h4c0.552 0 1-0.5 1-1 0-0.6-0.448-1-1-1h-4z"
       fill="#ecf0f1"
       id="path9" />
    <path
       d="m9 1042.4c0 0.5 0.4477 1 1 1h4c0.552 0 1-0.5 1-1h-6z"
       fill="#95a5a6"
       id="path10" />
    <path
       d="m17 1033.4c-0.552 0-1 0.4-1 1 0 0.5 0.448 1 1 1h4c0.552 0 1-0.5 1-1 0-0.6-0.448-1-1-1h-4z"
       fill="#ecf0f1"
       id="path11" />
    <path
       d="m16 1034.4c0 0.5 0.448 1 1 1h4c0.552 0 1-0.5 1-1h-6z"
       fill="#95a5a6"
       id="path12" />
  </g>
  <ellipse
     style="fill:#ff0000;stroke-width:1.1818"
     id="path13"
     cx="18.859207"
     cy="16.231047"
     rx="2.9458485"
     ry="2.7725632" />
</svg>
